<svg xmlns="http://www.w3.org/2000/svg" xmlns:xlink="http://www.w3.org/1999/xlink" width="500" zoomAndPan="magnify" viewBox="0 0 375 187.499995" height="250" preserveAspectRatio="xMidYMid meet" version="1.0"><defs><g/></defs><g fill="#a9907e" fill-opacity="1"><g transform="translate(54.03783, 129.067449)"><g><path d="M 45.011719 -15.855469 L 44.226562 -15.855469 C 43.308594 -6.289062 37.476562 -2.359375 30.859375 -2.359375 C 22.472656 -2.359375 17.558594 -7.402344 17.558594 -21.882812 L 44.421875 -21.882812 C 44.816406 -37.609375 35.445312 -44.03125 24.570312 -44.03125 C 11.464844 -44.03125 2.292969 -35.25 2.292969 -22.082031 C 2.292969 -8.84375 12.1875 0 26.601562 0 C 36.363281 0 44.03125 -4.847656 45.011719 -15.855469 Z M 24.503906 -43.179688 C 30.925781 -43.179688 30.46875 -29.746094 30.46875 -22.671875 L 17.558594 -22.671875 C 17.625 -35.90625 19.589844 -43.179688 24.503906 -43.179688 Z M 24.503906 -43.179688 "/></g></g></g><g fill="#a9907e" fill-opacity="1"><g transform="translate(97.278092, 129.067449)"><g><path d="M 34.792969 -60.082031 L 34.53125 -60.082031 L 34.53125 -30.730469 C 32.433594 -39.378906 26.996094 -44.03125 19.394531 -44.03125 C 8.976562 -44.03125 2.359375 -36.035156 2.359375 -22.210938 C 2.359375 -7.992188 9.042969 0 19.589844 0 C 27.453125 0 32.957031 -5.046875 34.792969 -14.480469 L 34.792969 -14.152344 C 34.792969 -6.289062 41.148438 0 48.945312 0 L 48.945312 -45.996094 C 48.945312 -53.792969 42.589844 -60.082031 34.792969 -60.082031 Z M 17.625 -22.210938 C 17.625 -33.285156 20.835938 -40.621094 25.683594 -40.621094 C 29.8125 -40.621094 33.875 -34.398438 34.53125 -24.832031 L 34.53125 -19.589844 C 33.875 -9.761719 29.8125 -3.40625 25.683594 -3.40625 C 20.835938 -3.40625 17.625 -10.941406 17.625 -22.210938 Z M 17.625 -22.210938 "/></g></g></g><g fill="#a9907e" fill-opacity="1"><g transform="translate(146.54584, 129.067449)"><g><path d="M 47.175781 0 L 47.242188 0 L 64.277344 -43.242188 L 63.292969 -43.242188 L 56.742188 -26.601562 C 56.152344 -25.09375 54.773438 -24.308594 53.464844 -24.308594 C 52.089844 -24.308594 50.714844 -25.09375 50.125 -26.535156 L 48.945312 -29.484375 C 45.535156 -37.804688 37.414062 -43.242188 28.371094 -43.242188 L 32.234375 -34.332031 L 29.089844 -26.339844 C 28.5 -24.832031 27.125 -24.113281 25.75 -24.113281 C 24.4375 -24.113281 23.0625 -24.832031 22.472656 -26.339844 L 21.164062 -29.417969 C 17.757812 -37.738281 9.695312 -43.242188 0.65625 -43.242188 L 19.460938 0 L 19.523438 0 L 32.761719 -33.152344 Z M 47.175781 0 "/></g></g></g><g fill="#a9907e" fill-opacity="1"><g transform="translate(207.344437, 129.067449)"><g><path d="M 19.460938 -56.871094 C 19.460938 -61.128906 16.316406 -64.667969 11.464844 -64.667969 C 6.75 -64.667969 3.605469 -61.128906 3.605469 -56.871094 C 3.605469 -52.679688 6.75 -49.074219 11.464844 -49.074219 C 16.316406 -49.074219 19.460938 -52.679688 19.460938 -56.871094 Z M 4.390625 -42.328125 L 4.390625 -14.414062 C 4.390625 -6.421875 10.8125 0 18.804688 0 L 18.804688 -27.910156 C 18.804688 -35.90625 12.316406 -42.328125 4.390625 -42.328125 Z M 4.390625 -42.328125 "/></g></g></g><g fill="#a9907e" fill-opacity="1"><g transform="translate(226.343721, 129.067449)"><g><path d="M 27.648438 -39.179688 C 31.058594 -39.179688 32.628906 -36.824219 32.628906 -31.84375 L 32.628906 -12.1875 C 32.628906 -5.4375 38.132812 0 44.816406 0 L 47.042969 0 L 47.042969 -28.175781 C 47.042969 -37.214844 42.128906 -43.179688 33.152344 -43.179688 C 24.765625 -43.179688 20.574219 -37.9375 18.871094 -30.140625 C 18.871094 -36.886719 13.433594 -42.328125 6.683594 -42.328125 L 4.457031 -42.328125 L 4.457031 -12.1875 C 4.457031 -5.4375 9.960938 0 16.640625 0 L 18.871094 0 L 18.871094 -23.980469 C 19.394531 -32.433594 22.34375 -39.179688 27.648438 -39.179688 Z M 27.648438 -39.179688 "/></g></g></g><g fill="#a9907e" fill-opacity="1"><g transform="translate(273.383911, 129.067449)"><g><path d="M 24.570312 -44.03125 C 15.199219 -44.03125 8.910156 -40.359375 6.289062 -33.675781 L 7.207031 -33.675781 C 9.5 -39.179688 14.285156 -42.128906 19.851562 -42.128906 C 26.40625 -42.128906 29.027344 -38.460938 29.027344 -30.335938 L 29.027344 -24.636719 C 12.449219 -23.128906 2.226562 -18.019531 2.226562 -9.304688 C 2.226562 -4.652344 5.242188 0 12.515625 0 C 20.964844 0 27.519531 -4.390625 29.351562 -15.332031 L 29.351562 -14.085938 C 29.351562 -6.289062 35.644531 0 43.375 0 L 43.375 -25.878906 C 43.441406 -38.460938 35.707031 -44.03125 24.570312 -44.03125 Z M 16.640625 -12.121094 C 16.640625 -18.738281 21.753906 -22.800781 29.027344 -23.980469 L 29.027344 -22.015625 C 29.027344 -9.761719 24.703125 -6.09375 21.425781 -6.09375 C 18.542969 -6.09375 16.640625 -8.125 16.640625 -12.121094 Z M 16.640625 -12.121094 "/></g></g></g></svg>