<svg xmlns="http://www.w3.org/2000/svg" xmlns:xlink="http://www.w3.org/1999/xlink" width="500" zoomAndPan="magnify" viewBox="0 0 375 187.499995" height="250" preserveAspectRatio="xMidYMid meet" version="1.0"><defs><g/></defs><g fill="#000000" fill-opacity="1"><g transform="translate(54.053439, 128.875679)"><g><path d="M 45.011719 -15.855469 L 44.222656 -15.855469 C 43.308594 -6.289062 37.476562 -2.359375 30.859375 -2.359375 C 22.472656 -2.359375 17.558594 -7.402344 17.558594 -21.882812 L 44.421875 -21.882812 C 44.8125 -37.605469 35.445312 -44.027344 24.570312 -44.027344 C 11.464844 -44.027344 2.292969 -35.25 2.292969 -22.078125 C 2.292969 -8.84375 12.1875 0 26.601562 0 C 36.363281 0 44.027344 -4.847656 45.011719 -15.855469 Z M 24.503906 -43.175781 C 30.925781 -43.175781 30.464844 -29.746094 30.464844 -22.667969 L 17.558594 -22.667969 C 17.625 -35.902344 19.589844 -43.175781 24.503906 -43.175781 Z M 24.503906 -43.175781 "/></g></g></g><g fill="#000000" fill-opacity="1"><g transform="translate(97.290481, 128.875679)"><g><path d="M 34.789062 -60.078125 L 34.527344 -60.078125 L 34.527344 -30.726562 C 32.429688 -39.375 26.992188 -44.027344 19.394531 -44.027344 C 8.976562 -44.027344 2.359375 -36.035156 2.359375 -22.210938 C 2.359375 -7.992188 9.042969 0 19.589844 0 C 27.453125 0 32.957031 -5.042969 34.789062 -14.480469 L 34.789062 -14.152344 C 34.789062 -6.289062 41.144531 0 48.941406 0 L 48.941406 -45.992188 C 48.941406 -53.789062 42.585938 -60.078125 34.789062 -60.078125 Z M 17.625 -22.210938 C 17.625 -33.28125 20.835938 -40.621094 25.683594 -40.621094 C 29.808594 -40.621094 33.871094 -34.398438 34.527344 -24.832031 L 34.527344 -19.589844 C 33.871094 -9.761719 29.808594 -3.40625 25.683594 -3.40625 C 20.835938 -3.40625 17.625 -10.941406 17.625 -22.210938 Z M 17.625 -22.210938 "/></g></g></g><g fill="#000000" fill-opacity="1"><g transform="translate(146.554591, 128.875679)"><g><path d="M 47.171875 0 L 47.238281 0 L 64.273438 -43.242188 L 63.289062 -43.242188 L 56.738281 -26.601562 C 56.148438 -25.09375 54.773438 -24.308594 53.460938 -24.308594 C 52.085938 -24.308594 50.710938 -25.09375 50.121094 -26.535156 L 48.941406 -29.484375 C 45.535156 -37.804688 37.410156 -43.242188 28.367188 -43.242188 L 32.234375 -34.332031 L 29.089844 -26.339844 C 28.5 -24.832031 27.125 -24.109375 25.75 -24.109375 C 24.4375 -24.109375 23.0625 -24.832031 22.472656 -26.339844 L 21.164062 -29.417969 C 17.753906 -37.738281 9.695312 -43.242188 0.65625 -43.242188 L 19.457031 0 L 19.523438 0 L 32.757812 -33.152344 Z M 47.171875 0 "/></g></g></g><g fill="#000000" fill-opacity="1"><g transform="translate(207.34876, 128.875679)"><g><path d="M 19.457031 -56.871094 C 19.457031 -61.128906 16.3125 -64.664062 11.464844 -64.664062 C 6.75 -64.664062 3.601562 -61.128906 3.601562 -56.871094 C 3.601562 -52.675781 6.75 -49.074219 11.464844 -49.074219 C 16.3125 -49.074219 19.457031 -52.675781 19.457031 -56.871094 Z M 4.390625 -42.324219 L 4.390625 -14.414062 C 4.390625 -6.421875 10.808594 0 18.804688 0 L 18.804688 -27.910156 C 18.804688 -35.902344 12.316406 -42.324219 4.390625 -42.324219 Z M 4.390625 -42.324219 "/></g></g></g><g fill="#000000" fill-opacity="1"><g transform="translate(226.346461, 128.875679)"><g><path d="M 27.648438 -39.179688 C 31.054688 -39.179688 32.628906 -36.820312 32.628906 -31.839844 L 32.628906 -12.1875 C 32.628906 -5.4375 38.132812 0 44.8125 0 L 47.042969 0 L 47.042969 -28.171875 C 47.042969 -37.214844 42.128906 -43.175781 33.152344 -43.175781 C 24.765625 -43.175781 20.574219 -37.933594 18.867188 -30.136719 C 18.867188 -36.886719 13.429688 -42.324219 6.683594 -42.324219 L 4.457031 -42.324219 L 4.457031 -12.1875 C 4.457031 -5.4375 9.957031 0 16.640625 0 L 18.867188 0 L 18.867188 -23.980469 C 19.394531 -32.429688 22.339844 -39.179688 27.648438 -39.179688 Z M 27.648438 -39.179688 "/></g></g></g><g fill="#000000" fill-opacity="1"><g transform="translate(273.383178, 128.875679)"><g><path d="M 24.570312 -44.027344 C 15.199219 -44.027344 8.910156 -40.359375 6.289062 -33.675781 L 7.207031 -33.675781 C 9.5 -39.179688 14.28125 -42.128906 19.851562 -42.128906 C 26.402344 -42.128906 29.023438 -38.457031 29.023438 -30.335938 L 29.023438 -24.632812 C 12.449219 -23.128906 2.226562 -18.015625 2.226562 -9.304688 C 2.226562 -4.652344 5.242188 0 12.515625 0 C 20.964844 0 27.515625 -4.390625 29.351562 -15.332031 L 29.351562 -14.085938 C 29.351562 -6.289062 35.640625 0 43.371094 0 L 43.371094 -25.878906 C 43.4375 -38.457031 35.707031 -44.027344 24.570312 -44.027344 Z M 16.640625 -12.121094 C 16.640625 -18.738281 21.75 -22.800781 29.023438 -23.980469 L 29.023438 -22.015625 C 29.023438 -9.761719 24.699219 -6.09375 21.425781 -6.09375 C 18.542969 -6.09375 16.640625 -8.125 16.640625 -12.121094 Z M 16.640625 -12.121094 "/></g></g></g></svg>